<?xml version="1.0" standalone="no"?>
<!DOCTYPE svg PUBLIC "-//W3C//DTD SVG 20010904//EN"
 "http://www.w3.org/TR/2001/REC-SVG-20010904/DTD/svg10.dtd">
<svg version="1.0" xmlns="http://www.w3.org/2000/svg"
 width="2321.000000pt" height="1023.000000pt" viewBox="0 0 2321.000000 1023.000000"
 preserveAspectRatio="xMidYMid meet">

<g transform="translate(0.000000,1023.000000) scale(0.100000,-0.100000)"
fill="#000000" stroke="none">
<path d="M1375 10220 c-257 -29 -478 -108 -683 -243 -359 -238 -590 -590 -669
-1022 -23 -125 -23 -387 1 -520 37 -212 137 -451 263 -628 74 -105 245 -276
350 -350 174 -124 391 -216 606 -259 148 -29 413 -31 557 -4 421 80 773 314
1007 668 299 453 332 1033 87 1523 -216 434 -625 737 -1107 820 -113 19 -310
26 -412 15z m455 -333 c435 -115 769 -448 888 -887 24 -88 26 -111 26 -300 0
-190 -2 -212 -26 -302 -139 -515 -567 -875 -1088 -917 -365 -29 -708 96 -965
354 -259 259 -380 589 -353 968 38 542 452 999 1000 1103 50 9 128 12 248 10
148 -3 190 -8 270 -29z"/>
<path d="M1315 9671 c-427 -100 -730 -444 -774 -879 -17 -162 14 -350 83 -506
87 -197 295 -405 492 -492 158 -70 350 -101 511 -83 412 46 737 316 860 716
25 82 27 101 27 268 0 155 -3 191 -22 258 -47 169 -137 324 -261 448 -125 125
-277 213 -446 259 -115 32 -357 37 -470 11z m331 -708 l26 -73 205 -2 206 -3
-157 -119 c-87 -65 -160 -125 -163 -132 -3 -8 20 -98 51 -200 32 -103 56 -187
54 -189 -2 -2 -77 49 -167 112 -90 63 -169 112 -177 109 -7 -3 -79 -51 -161
-108 -179 -126 -174 -122 -168 -106 2 7 27 90 55 183 28 94 53 177 55 186 4
11 -42 51 -160 140 l-165 124 207 5 207 5 63 180 c35 99 66 187 69 195 3 9 25
-38 50 -110 24 -69 56 -158 70 -197z"/>
<path d="M4740 10219 c-653 -62 -1203 -557 -1340 -1207 -30 -142 -37 -384 -16
-530 51 -346 207 -648 459 -888 541 -518 1377 -564 1981 -110 40 31 118 102
173 159 200 207 331 455 394 740 26 119 36 386 20 512 -46 346 -187 632 -436
880 -262 263 -573 410 -940 445 -122 11 -170 11 -295 -1z m380 -336 c41 -8
118 -29 170 -46 l95 -32 -270 -3 -270 -4 -472 -574 -473 -575 0 -279 0 -280
470 0 470 0 0 -225 0 -225 313 0 312 -1 -50 -26 c-199 -104 -506 -145 -738
-100 -719 142 -1155 877 -926 1562 192 573 786 924 1369 808z m515 -234 c70
-53 192 -181 248 -260 138 -196 217 -445 217 -689 0 -351 -148 -675 -414 -908
-58 -50 -186 -142 -200 -142 -3 0 -6 99 -6 220 l0 220 125 0 125 0 0 265 0
265 -130 0 -130 0 0 570 0 571 58 -37 c31 -20 80 -54 107 -75z m-785 -724 l0
-305 -240 0 -240 0 238 305 c130 167 238 305 240 305 1 0 2 -137 2 -305z"/>
<path d="M11466 10220 c-536 -61 -983 -373 -1216 -848 -238 -485 -200 -1073
99 -1518 238 -355 588 -583 1016 -661 139 -26 399 -23 542 5 701 140 1204 717
1240 1426 39 772 -503 1449 -1265 1581 -112 19 -315 26 -416 15z m434 -145
c285 -63 509 -185 715 -390 194 -193 322 -431 382 -708 26 -117 25 -438 0
-557 -59 -276 -186 -510 -387 -710 -199 -200 -430 -325 -711 -386 -119 -26
-428 -27 -548 -1 -190 41 -358 110 -500 205 -318 214 -532 535 -608 909 -25
123 -25 404 0 523 91 437 364 797 751 992 139 70 287 115 461 142 67 10 372
-3 445 -19z"/>
<path d="M10875 9826 c-361 -244 -577 -621 -602 -1053 l-6 -103 475 0 475 0 6
59 c13 123 80 240 171 297 25 16 45 31 45 34 1 11 -468 814 -476 817 -4 1 -44
-22 -88 -51z"/>
<path d="M12039 9473 l-237 -408 27 -20 c14 -11 52 -46 83 -77 64 -65 95 -134
106 -233 l7 -60 474 -3 474 -2 -6 122 c-18 368 -209 735 -502 963 -70 55 -175
125 -186 125 -2 0 -110 -183 -240 -407z"/>
<path d="M11554 8949 c-18 -5 -53 -24 -80 -41 -175 -120 -130 -394 75 -455
123 -35 245 19 307 137 28 52 26 172 -3 226 -56 106 -189 165 -299 133z"/>
<path d="M11165 7959 c-126 -220 -231 -406 -233 -413 -4 -17 188 -107 298
-140 154 -46 258 -59 435 -53 167 6 243 18 384 64 98 32 267 114 264 128 -1 6
-107 191 -235 413 -182 316 -236 401 -248 396 -8 -4 -46 -18 -85 -32 -91 -32
-195 -27 -281 12 -31 14 -59 26 -63 26 -3 -1 -109 -181 -236 -401z"/>
<path d="M18185 10224 c-519 -76 -950 -383 -1174 -839 -118 -238 -156 -408
-155 -690 0 -157 4 -208 22 -291 89 -412 314 -746 656 -975 499 -335 1172
-340 1673 -13 355 230 584 566 675 988 32 147 32 456 0 602 -100 463 -386 844
-792 1053 -136 70 -227 104 -370 138 -90 21 -133 25 -305 28 -110 2 -213 1
-230 -1z m335 -549 c95 -14 207 -47 270 -80 l33 -17 -227 -227 -226 -226 -219
225 -219 225 42 21 c60 32 201 73 281 83 106 13 161 12 265 -4z m-782 -1197
c-123 -119 -226 -217 -229 -218 -11 0 -58 117 -80 198 -30 110 -37 311 -15
422 18 89 36 147 69 223 l20 49 229 -229 229 -228 -223 -217z m1593 475 c30
-111 37 -308 14 -428 -15 -80 -60 -217 -84 -254 -7 -11 -62 37 -235 205 l-226
219 227 228 228 228 27 -60 c15 -32 37 -94 49 -138z m-521 -1133 c-39 -25
-186 -70 -280 -85 -173 -29 -382 -3 -545 69 l-59 27 224 224 225 225 225 -225
c179 -180 222 -227 210 -235z"/>
<path d="M7970 10200 c-205 -37 -394 -113 -575 -235 -227 -151 -391 -338 -514
-582 -162 -323 -203 -702 -115 -1058 179 -717 864 -1208 1598 -1145 380 33
704 183 966 449 670 680 556 1809 -235 2338 -185 123 -384 201 -610 238 -128
21 -381 18 -515 -5z"/>
<path d="M21449 10205 c-344 -56 -605 -189 -844 -429 -131 -132 -217 -251
-290 -401 -273 -561 -173 -1237 249 -1691 222 -239 507 -396 836 -460 141 -27
428 -25 566 4 536 115 955 479 1132 983 62 177 77 273 77 499 0 162 -4 223
-19 290 -67 311 -204 567 -416 780 -207 207 -470 349 -758 410 -128 28 -409
36 -533 15z m249 -162 c-16 -2 -40 -2 -55 0 -16 2 -3 4 27 4 30 0 43 -2 28 -4z
m-128 -77 c0 -68 -2 -74 -22 -80 -47 -12 -48 -10 -48 74 l0 80 35 0 35 0 0
-74z m280 -6 c0 -44 -4 -80 -9 -80 -5 0 -23 3 -40 6 l-31 7 0 73 0 74 40 0 40
0 0 -80z m-675 -500 c170 -170 313 -310 317 -310 5 0 8 26 8 57 l0 57 35 -34
35 -34 0 -193 0 -193 -188 0 -188 0 -39 40 -39 40 64 0 65 0 -317 318 -317
317 24 30 25 30 347 -347 348 -348 73 0 72 0 0 67 0 67 -351 352 -351 351 29
21 c15 12 30 22 33 22 3 0 145 -139 315 -310z m1342 285 l28 -24 -347 -348
-348 -348 0 -68 0 -67 73 0 72 0 345 345 344 344 23 -21 c13 -12 23 -26 23
-32 0 -6 -141 -152 -312 -323 l-313 -313 65 0 64 0 -39 -40 -39 -40 -193 0
-193 0 0 188 0 188 39 38 40 39 3 -57 3 -56 310 310 c170 170 313 310 317 310
4 0 20 -11 35 -25z m-2017 -895 l0 -40 -80 0 -80 0 0 33 c0 19 3 37 7 40 3 4
39 7 80 7 l73 0 0 -40z m2502 0 l4 -40 -78 0 c-68 0 -78 2 -78 18 0 9 -3 27
-6 40 -6 21 -4 22 74 22 l80 0 4 -40z m5 -182 c-2 -24 -4 -5 -4 42 0 47 2 66
4 43 2 -24 2 -62 0 -85z m-2507 -98 l0 -40 -74 0 c-79 0 -86 5 -86 56 0 23 2
24 80 24 l80 0 0 -40z m1070 -153 l0 -193 -35 -34 -35 -34 0 57 c0 31 -3 57
-7 57 -5 0 -148 -140 -319 -311 l-312 -311 -31 23 -31 23 350 351 350 351 0
67 0 67 -72 0 -73 0 -347 -347 c-191 -191 -349 -345 -350 -343 -2 3 -14 18
-28 33 l-24 28 314 314 315 315 -60 0 -59 0 39 40 39 40 188 0 188 0 0 -193z
m625 153 l39 -40 -64 0 -65 0 314 -314 c277 -277 312 -316 303 -333 -29 -53
-23 -57 -382 302 l-345 345 -72 0 -73 0 0 -67 0 -68 348 -348 347 -348 -29
-25 -29 -26 -319 319 -318 318 0 -65 0 -64 -40 39 -40 39 0 188 0 188 193 0
193 0 39 -40z m807 0 l-4 -40 -79 0 c-43 0 -79 4 -79 9 0 5 3 23 6 40 l7 31
76 0 77 0 -4 -40z m-1434 -1112 l3 -78 -36 0 -35 0 0 81 0 80 33 -3 32 -3 3
-77z m282 2 l0 -80 -40 0 -40 0 0 74 c0 79 3 84 53 85 l27 1 0 -80z"/>
<path d="M14799 9954 c-258 -46 -478 -162 -670 -353 -153 -152 -247 -302 -314
-504 -124 -372 -65 -786 158 -1116 28 -42 68 -95 91 -119 l40 -43 217 217
c120 120 220 216 222 214 2 -3 11 -33 19 -66 l15 -62 -188 -188 c-104 -104
-189 -194 -189 -199 0 -15 82 -76 179 -134 362 -218 838 -234 1221 -41 106 53
238 149 324 235 327 327 450 793 330 1248 -31 117 -125 310 -202 413 -194 263
-486 443 -806 499 -109 19 -341 19 -447 -1z m406 -414 c-82 -106 -124 -209
-125 -301 0 -34 -3 -36 -57 -59 -84 -34 -178 -133 -233 -243 -24 -47 -40 -93
-37 -101 7 -17 96 -46 143 -46 91 0 288 101 282 145 -3 17 -12 21 -55 23 -53
3 -53 3 -53 36 0 20 -8 40 -20 51 -26 24 -25 32 5 39 14 4 32 19 42 34 9 15
18 28 19 30 1 2 16 -4 33 -12 92 -48 206 25 219 142 l5 44 56 -7 c122 -14 298
57 420 169 26 24 20 13 -25 -49 -33 -44 -75 -114 -94 -155 -33 -70 -35 -81
-35 -176 l0 -102 -44 -6 c-120 -16 -196 -134 -143 -221 l19 -30 -30 -18 c-16
-10 -34 -31 -40 -47 l-11 -29 -29 25 c-16 13 -41 24 -58 24 -29 0 -30 2 -24
34 7 37 -8 76 -30 76 -19 0 -84 -92 -111 -158 -41 -100 -26 -272 23 -272 30 0
134 54 200 104 65 49 140 148 150 198 5 26 8 28 59 28 86 0 227 63 307 138 41
39 33 23 -27 -52 -68 -86 -114 -175 -129 -253 l-11 -61 -55 -5 c-75 -8 -189
-66 -250 -127 -61 -61 -100 -140 -114 -230 -9 -57 -14 -69 -27 -64 -8 4 -43 9
-78 12 -75 5 -131 -13 -182 -59 -19 -18 -36 -27 -38 -21 -2 6 -21 38 -43 72
l-39 61 21 62 c15 45 20 77 16 118 -5 54 -42 159 -57 159 -4 0 -15 -9 -25 -20
-10 -11 -21 -18 -25 -15 -4 2 -13 32 -20 66 -13 61 -13 62 -69 87 -71 32 -174
35 -240 6 l-45 -20 -64 43 c-35 24 -68 43 -74 43 -5 0 7 19 27 42 50 60 72
136 57 207 -13 63 -10 71 27 71 15 0 52 7 82 16 164 49 274 185 304 377 5 33
9 37 36 37 73 0 257 99 333 179 17 17 31 31 33 31 1 0 -22 -32 -52 -70z m-370
-1079 l16 -64 -32 -33 c-18 -19 -36 -34 -40 -34 -4 0 -12 30 -19 66 l-13 65
34 35 c18 18 34 33 35 31 1 -1 10 -31 19 -66z m-113 -194 l-36 -37 -17 67 -16
68 36 38 36 38 17 -68 17 -68 -37 -38z m-70 11 l15 -63 -36 -38 -36 -38 -17
68 -17 68 31 33 c18 17 35 32 39 32 4 0 14 -28 21 -62z"/>
<path d="M4655 6885 c-219 -36 -469 -138 -649 -267 -305 -217 -523 -552 -608
-935 -19 -84 -22 -129 -22 -308 0 -179 3 -225 22 -308 47 -213 135 -413 255
-584 79 -112 238 -271 350 -350 169 -119 377 -211 580 -255 87 -19 132 -22
312 -22 180 0 225 3 312 22 528 115 946 479 1128 982 54 151 76 272 82 455 8
254 -21 425 -110 644 -78 193 -182 347 -337 501 -207 206 -471 349 -758 411
-129 28 -426 35 -557 14z"/>
<path d="M11473 6889 c-618 -59 -1149 -503 -1316 -1099 -41 -144 -52 -233 -51
-420 0 -160 4 -201 26 -305 64 -303 194 -540 413 -760 133 -133 245 -216 401
-293 627 -312 1392 -153 1840 383 187 224 306 494 345 782 18 138 6 404 -24
533 -93 392 -312 711 -641 931 -214 144 -440 223 -711 249 -122 11 -161 11
-282 -1z m457 -302 c467 -126 814 -489 916 -957 26 -119 26 -391 0 -510 -108
-499 -510 -889 -1005 -975 -111 -20 -336 -19 -442 1 -331 63 -629 256 -809
526 -103 153 -165 305 -201 489 -19 96 -16 357 5 454 98 451 407 802 833 945
150 50 227 60 428 56 155 -3 193 -7 275 -29z"/>
<path d="M11445 6095 c-57 -118 -107 -215 -112 -215 -4 0 -124 93 -266 205
-142 113 -262 205 -266 205 -13 0 -135 -136 -178 -197 l-35 -51 512 -571 c281
-314 515 -571 519 -571 7 0 1024 1126 1029 1139 6 18 -187 251 -208 251 -4 0
-121 -90 -260 -200 -139 -110 -255 -200 -259 -200 -4 0 -13 12 -20 28 -7 15
-37 70 -67 123 -72 127 -71 133 9 127 34 -3 71 -9 81 -13 18 -8 19 -5 13 31
-8 48 -58 98 -114 113 -21 6 -91 11 -156 11 l-118 0 -104 -215z"/>
<path d="M10527 5934 c-80 -160 -121 -312 -133 -489 l-6 -100 206 205 c113
113 206 208 206 211 0 6 -109 131 -221 253 -4 5 -28 -31 -52 -80z"/>
<path d="M12555 5895 c-60 -68 -111 -127 -112 -132 -2 -4 89 -100 202 -213
l205 -205 0 55 c0 73 -24 227 -50 320 -18 63 -122 300 -132 300 -2 0 -52 -56
-113 -125z"/>
<path d="M10608 5522 l-217 -217 10 -80 c10 -84 42 -216 66 -274 l15 -34 284
284 c156 156 284 285 284 286 0 2 -175 199 -209 235 -15 17 -29 5 -233 -200z"/>
<path d="M12307 5620 c-59 -67 -107 -126 -107 -132 0 -19 553 -569 563 -559
16 16 57 171 73 275 l15 100 -218 218 -218 218 -108 -120z"/>
<path d="M10777 5182 l-289 -289 40 -79 c39 -76 110 -183 170 -253 l29 -34
281 347 282 347 -111 125 c-62 68 -112 124 -113 124 -1 0 -131 -130 -289 -288z"/>
<path d="M12062 5346 l-112 -124 282 -347 282 -348 33 39 c52 60 147 205 178
269 l27 58 -289 289 -289 289 -112 -125z"/>
<path d="M11740 4990 c-63 -72 -117 -130 -121 -130 -3 0 -56 56 -118 125 -62
69 -115 125 -119 125 -6 -1 -477 -578 -535 -655 l-18 -24 68 -50 c206 -152
457 -233 718 -233 72 -1 160 4 196 11 170 29 359 103 499 196 123 82 142 35
-175 424 -152 188 -277 341 -278 341 -1 0 -54 -59 -117 -130z"/>
<path d="M1390 6883 c-249 -24 -502 -115 -711 -254 -114 -77 -280 -235 -365
-349 -120 -161 -218 -379 -266 -591 -20 -91 -23 -131 -23 -314 0 -234 10 -300
70 -481 79 -238 205 -436 392 -615 209 -201 452 -326 753 -390 141 -30 417
-32 560 -5 126 24 279 75 393 130 298 144 560 408 701 706 99 211 135 364 143
610 4 148 2 193 -15 295 -55 319 -194 589 -421 815 -121 121 -192 176 -326
253 -250 144 -597 219 -885 190z m360 -259 c513 -88 913 -480 1026 -1004 25
-115 25 -360 1 -482 -50 -249 -180 -494 -354 -665 -35 -35 -67 -63 -73 -63 -5
0 -15 11 -23 25 l-13 25 -93 -102 c-51 -57 -101 -107 -110 -112 -19 -11 -10 0
107 128 45 50 82 95 82 101 0 18 -91 166 -99 163 -5 -2 -90 -92 -190 -201
l-181 -198 26 -40 c14 -23 24 -43 21 -45 -16 -17 -166 -37 -305 -41 -128 -4
-182 -2 -260 12 -734 132 -1194 846 -1011 1570 120 470 519 841 1000 929 106
20 336 19 449 0z"/>
<path d="M1713 6478 c7 -20 477 -832 486 -841 5 -4 27 24 51 64 32 54 40 76
33 88 -5 9 -98 170 -207 359 l-198 342 -85 0 c-64 0 -84 -3 -80 -12z"/>
<path d="M1065 6100 c-341 -198 -624 -361 -629 -363 -11 -4 464 -836 476 -837
6 0 1245 710 1267 726 7 5 -474 833 -484 833 -5 0 -289 -162 -630 -359z"/>
<path d="M958 6291 c-119 -70 -219 -129 -223 -133 -3 -3 16 -45 43 -92 l49
-85 219 125 c120 70 223 130 227 134 8 7 -76 165 -91 173 -4 2 -105 -53 -224
-122z"/>
<path d="M361 5662 c-23 -39 -41 -73 -41 -75 0 -3 92 -164 204 -358 l204 -354
87 -3 c68 -2 86 0 82 10 -8 21 -477 832 -487 841 -4 5 -26 -23 -49 -61z"/>
<path d="M1593 5184 c-98 -107 -179 -199 -181 -204 -4 -12 89 -171 99 -168 4
2 89 92 188 200 l181 198 -47 85 c-27 46 -51 85 -55 85 -3 0 -87 -88 -185
-196z"/>
<path d="M1520 5229 c-96 -56 -179 -105 -183 -109 -9 -8 49 -120 62 -120 4 0
68 66 142 148 135 148 165 182 158 182 -2 0 -83 -46 -179 -101z"/>
<path d="M1699 4998 c-101 -111 -183 -205 -181 -210 1 -5 23 -45 49 -90 l47
-81 36 40 c19 22 103 114 186 204 l151 164 -47 83 c-26 45 -49 85 -52 87 -3 3
-88 -85 -189 -197z"/>
<path d="M1948 4971 c-18 -21 -100 -111 -181 -199 l-149 -162 49 -85 c26 -47
51 -85 54 -85 6 0 362 388 367 400 4 10 -90 170 -99 170 -4 0 -22 -17 -41 -39z"/>
<path d="M1913 4630 c-101 -109 -183 -203 -183 -207 0 -4 22 -45 49 -91 l48
-83 149 163 c82 90 166 182 187 204 l37 42 -50 86 c-28 47 -52 86 -53 86 -1 0
-84 -90 -184 -200z"/>
<path d="M14835 6834 c-348 -51 -634 -193 -875 -434 -126 -125 -210 -240 -285
-389 -60 -120 -119 -299 -140 -426 -22 -129 -23 -367 -1 -495 99 -600 540
-1080 1126 -1224 298 -73 616 -55 896 49 101 39 263 125 357 192 104 74 266
236 340 340 322 452 373 1048 132 1547 -72 150 -158 270 -290 401 -215 216
-439 341 -735 412 -89 21 -134 25 -300 28 -107 2 -208 1 -225 -1z m45 -1503
l0 -598 -52 9 c-81 13 -225 88 -290 151 -115 110 -177 243 -185 399 -7 123 7
200 58 306 72 149 222 274 380 316 99 27 89 96 89 -583z m416 571 c44 -16 106
-45 137 -66 118 -78 217 -217 252 -353 18 -67 20 -210 4 -285 -15 -75 -69
-183 -126 -253 -83 -102 -265 -205 -363 -205 l-30 0 0 595 0 595 23 0 c12 0
58 -13 103 -28z"/>
<path d="M8075 6824 c-332 -51 -575 -156 -807 -352 -258 -217 -445 -547 -504
-887 -22 -129 -22 -366 -1 -495 153 -914 1082 -1472 1961 -1178 499 167 875
590 988 1113 28 133 35 379 14 523 -92 624 -557 1120 -1174 1253 -71 15 -143
21 -272 24 -96 2 -188 1 -205 -1z"/>
<path d="M18135 6815 c-636 -103 -1125 -579 -1252 -1220 -27 -136 -24 -434 5
-571 133 -621 590 -1067 1217 -1190 125 -25 405 -25 530 0 185 36 352 97 494
181 382 225 639 590 728 1030 27 138 24 434 -6 575 -98 459 -378 830 -781
1039 -135 69 -253 113 -388 142 -129 27 -417 35 -547 14z m498 -240 c386 -87
698 -326 874 -671 250 -488 163 -1075 -217 -1468 -327 -338 -786 -468 -1245
-351 -409 103 -750 420 -886 822 -50 149 -63 233 -64 413 0 177 13 265 61 410
144 433 535 772 979 849 33 6 71 13 85 15 53 10 347 -4 413 -19z"/>
<path d="M18193 6205 c-110 -20 -304 -92 -303 -112 1 -4 106 -116 235 -248
l234 -240 248 247 247 247 -59 27 c-196 87 -405 115 -602 79z"/>
<path d="M17566 5745 c-109 -231 -125 -500 -43 -740 21 -60 61 -150 73 -164 4
-5 478 457 483 471 3 10 -467 488 -480 488 -4 0 -18 -25 -33 -55z"/>
<path d="M18892 5557 l-243 -243 246 -239 c190 -184 249 -235 256 -224 20 32
72 166 91 237 31 113 31 342 0 464 -21 83 -88 248 -101 248 -3 0 -115 -109
-249 -243z"/>
<path d="M18120 4795 l-244 -244 78 -37 c43 -20 122 -47 175 -61 82 -22 117
-26 241 -26 123 0 159 4 240 25 92 25 240 84 240 97 0 3 -109 115 -243 249
l-242 242 -245 -245z"/>
<path d="M21410 6670 c-199 -36 -404 -118 -574 -231 l-78 -52 461 -461 461
-461 455 455 c250 250 454 459 452 465 -5 18 -140 103 -242 154 -105 51 -239
98 -365 126 -119 27 -436 30 -570 5z"/>
<path d="M22410 5645 l-455 -455 461 -461 462 -462 50 74 c296 440 339 1011
113 1495 -44 94 -151 264 -166 264 -6 0 -215 -205 -465 -455z"/>
<path d="M20407 6003 c-102 -152 -177 -334 -219 -526 -32 -148 -32 -456 0
-603 29 -134 64 -240 117 -351 45 -96 148 -263 162 -263 5 0 214 206 466 458
l457 457 -458 458 c-251 251 -460 457 -463 457 -3 0 -31 -39 -62 -87z"/>
<path d="M21202 4437 c-248 -248 -452 -455 -452 -459 0 -14 169 -119 261 -162
211 -100 417 -146 652 -146 128 0 252 11 299 26 16 5 14 -5 -11 -73 l-29 -78
-53 5 c-124 11 -365 4 -464 -14 -316 -58 -576 -195 -806 -425 -225 -226 -353
-460 -421 -775 -19 -85 -22 -134 -23 -306 0 -179 3 -218 23 -308 48 -213 116
-376 229 -545 104 -156 242 -293 447 -442 25 -18 27 -22 16 -50 -7 -16 -27
-71 -45 -121 l-34 -91 256 -234 c141 -129 261 -235 267 -237 7 -1 46 102 95
250 l84 253 142 -3 c79 -3 181 1 229 7 64 9 90 9 104 0 15 -9 29 -6 77 18 33
17 92 40 130 53 434 142 807 516 954 957 60 177 75 278 75 493 0 165 -4 211
-23 300 -45 211 -125 398 -245 575 -81 120 -265 303 -386 384 -52 36 -97 66
-99 67 -2 2 15 57 37 123 l41 121 -115 98 c-63 53 -114 100 -114 103 0 3 24
16 52 30 62 28 228 135 228 146 0 12 -903 913 -915 913 -6 0 -214 -204 -463
-453z m823 -1728 l-268 -804 223 -535 c122 -294 223 -541 224 -548 0 -6 -27
-28 -62 -47 l-63 -35 -23 52 c-12 29 -101 241 -196 470 -96 229 -175 416 -177
414 -2 -1 -106 -307 -231 -679 l-228 -676 -111 107 -112 107 276 732 275 732
-220 528 -221 528 57 57 c31 32 59 54 62 50 4 -4 94 -217 201 -474 107 -257
197 -468 200 -468 3 0 122 309 264 688 142 378 262 695 267 706 9 17 16 13 70
-41 l60 -61 -267 -803z m-205 564 c0 -22 -195 -532 -201 -526 -10 10 -209 488
-209 501 0 6 28 15 63 20 71 11 347 15 347 5z m604 -237 c90 -64 218 -197 287
-298 147 -215 219 -449 219 -712 0 -332 -130 -646 -363 -880 -60 -60 -192
-166 -207 -166 -9 0 -390 910 -390 931 0 16 383 1169 389 1169 2 0 31 -20 65
-44z m-1292 -534 l217 -517 -178 -480 c-97 -264 -180 -488 -184 -498 -6 -17
-11 -15 -54 15 -81 57 -226 209 -290 305 -102 153 -166 307 -199 481 -20 105
-22 306 -5 417 27 171 109 370 214 525 47 68 238 270 256 270 4 0 104 -233
223 -518z m652 -1557 c35 -82 61 -153 57 -158 -9 -10 -237 -14 -246 -5 -4 4
19 85 51 180 44 134 59 168 66 153 5 -11 37 -87 72 -170z"/>
<path d="M1335 3509 c-672 -92 -1203 -600 -1316 -1257 -22 -129 -26 -367 -8
-485 144 -970 1133 -1556 2057 -1218 201 73 380 190 547 356 228 226 371 505
426 826 18 106 21 150 16 304 -6 190 -21 281 -74 440 -169 514 -608 902 -1148
1015 -116 24 -388 35 -500 19z m361 -504 c447 -77 787 -421 855 -865 16 -108
7 -306 -20 -410 -26 -99 -91 -242 -150 -328 -315 -464 -953 -588 -1423 -276
-228 152 -384 385 -440 654 -29 137 -21 358 16 483 35 117 75 203 140 301 60
90 190 221 276 277 227 150 491 208 746 164z"/>
<path d="M1385 2950 c-33 -5 -104 -23 -157 -41 -591 -191 -849 -882 -532
-1423 53 -90 181 -228 269 -291 193 -137 439 -202 667 -175 238 27 435 125
598 296 122 128 183 234 237 411 24 79 26 104 27 253 1 143 -2 176 -22 249
-116 424 -477 712 -912 726 -63 2 -142 0 -175 -5z m45 -344 l0 -114 -31 -7
c-17 -4 -32 -5 -34 -3 -10 10 -105 181 -105 189 0 5 3 9 8 10 4 0 39 9 77 19
39 10 73 19 78 19 4 1 7 -50 7 -113z m317 85 c23 -6 45 -15 48 -20 4 -7 -78
-161 -101 -189 -1 -2 -16 -1 -33 3 l-31 7 0 112 0 113 38 -7 c20 -4 56 -12 79
-19z m-589 -262 l32 -56 -24 -22 -23 -22 -97 57 c-110 64 -109 56 -17 141 l46
42 26 -42 c14 -23 40 -67 57 -98z m922 47 l31 -34 -98 -56 -97 -55 -23 21
c-12 11 -21 24 -19 27 1 3 27 48 56 98 l52 93 34 -30 c19 -16 48 -45 64 -64z
m-1135 -268 c86 -49 93 -55 88 -78 -3 -14 -8 -28 -10 -32 -2 -5 -54 -8 -115
-8 l-110 0 6 34 c10 52 36 136 42 136 3 0 48 -24 99 -52z m717 15 c98 -55 144
-142 136 -258 -19 -285 -413 -346 -523 -81 -19 46 -19 157 0 203 65 155 243
217 387 136z m570 -15 c9 -29 19 -68 23 -85 l7 -33 -115 0 -114 0 -7 32 c-3
17 -5 32 -4 33 21 14 185 105 189 105 3 0 13 -24 21 -52z m-1203 -350 c6 -17
10 -32 9 -34 -2 -1 -46 -27 -98 -58 l-95 -55 -16 48 c-9 26 -20 67 -24 89 l-7
42 110 0 110 0 11 -32z m1227 -3 c-4 -20 -15 -60 -24 -90 l-17 -54 -95 55
c-79 45 -95 58 -92 77 5 47 6 47 123 47 l111 0 -6 -35z m-1094 -232 c10 -9 18
-20 18 -25 0 -13 -103 -188 -110 -188 -3 0 -32 27 -65 61 -49 48 -57 62 -45
69 87 53 167 98 174 99 5 1 18 -6 28 -16z m855 -34 c48 -29 90 -54 92 -56 6
-4 -110 -123 -120 -123 -7 0 -109 173 -109 186 0 10 31 44 41 44 5 0 48 -23
96 -51z m-587 -221 c0 -107 0 -108 -24 -108 -13 0 -54 9 -91 21 -64 20 -66 21
-53 42 8 12 34 56 57 98 l43 76 34 -10 34 -10 0 -109z m326 25 l53 -93 -66
-20 c-36 -11 -76 -20 -89 -20 -24 0 -24 1 -24 109 0 96 2 110 18 114 42 12 55
1 108 -90z"/>
<path d="M8086 3510 c-258 -30 -489 -114 -704 -256 -115 -77 -329 -290 -404
-404 -311 -469 -350 -1056 -103 -1550 76 -151 161 -267 289 -396 220 -220 465
-353 776 -420 122 -27 487 -27 610 0 457 99 841 388 1049 787 195 373 229 805
96 1205 -75 225 -192 413 -369 589 -288 287 -630 436 -1036 449 -69 3 -161 1
-204 -4z m544 -699 l0 -118 57 -38 c165 -110 288 -284 339 -480 29 -112 24
-295 -10 -410 -77 -258 -274 -463 -521 -541 -169 -54 -332 -54 -500 0 -114 37
-112 35 -87 93 12 26 27 47 34 46 7 -1 47 -14 88 -28 102 -36 245 -45 356 -21
309 68 525 322 541 636 8 172 -31 304 -132 446 -40 55 -141 154 -159 154 -3 0
-6 -147 -6 -327 l0 -328 -105 105 -105 105 0 222 c0 123 -3 223 -7 223 -8 -1
-333 -600 -333 -613 0 -4 77 -7 170 -7 154 0 170 2 170 17 0 12 24 -6 70 -52
l70 -69 -67 -68 c-61 -61 -68 -66 -75 -48 -7 20 -15 20 -220 18 l-213 -3 -120
-257 -120 -258 -128 0 c-118 0 -127 1 -119 18 6 9 175 331 376 715 202 383
370 705 373 714 6 14 -2 16 -73 10 -223 -17 -435 -162 -536 -364 -62 -123 -82
-215 -76 -352 4 -79 12 -126 32 -187 l28 -81 -26 -51 c-14 -28 -30 -53 -35
-56 -12 -8 -78 140 -96 216 -65 272 7 544 198 744 155 164 366 254 593 254
l63 0 38 70 38 70 118 0 117 0 0 -119z m0 -1161 l0 -100 -102 0 -103 0 100
100 c55 55 101 100 102 100 2 0 3 -45 3 -100z"/>
<path d="M18210 3514 c-14 -2 -68 -12 -120 -20 -488 -83 -929 -440 -1119 -906
-86 -210 -116 -392 -108 -638 8 -237 51 -409 153 -615 206 -415 586 -706 1054
-806 141 -30 437 -33 575 -6 475 96 863 389 1074 814 243 486 205 1062 -99
1516 -220 329 -554 553 -952 638 -90 19 -394 35 -458 23z m-360 -989 l-70 -70
-67 68 -68 67 70 70 69 70 68 -67 68 -68 -70 -70z m1167 143 c35 -34 63 -67
63 -73 0 -6 -29 -40 -65 -75 l-65 -64 -65 64 c-36 35 -65 69 -65 74 0 10 120
136 129 136 3 0 34 -28 68 -62z m-852 -318 l200 -200 202 202 203 203 70 -70
70 -70 -202 -202 -203 -203 203 -203 202 -202 -70 -70 -70 -70 -203 203 -202
202 -202 -202 -203 -203 -65 65 c-36 35 -65 69 -65 75 0 5 89 99 197 207 l198
198 -198 198 c-108 108 -197 202 -197 207 0 10 120 135 130 135 3 0 95 -90
205 -200z m-312 -858 l67 -68 -68 -67 -68 -67 -69 70 -69 70 64 65 c35 36 67
65 70 65 3 0 36 -30 73 -68z m1164 6 c35 -34 63 -67 63 -73 0 -6 -29 -40 -65
-75 l-65 -64 -65 64 c-36 35 -65 69 -65 74 0 10 120 136 129 136 3 0 34 -28
68 -62z"/>
<path d="M4775 3500 c-708 -50 -1291 -604 -1386 -1317 -18 -138 -6 -404 24
-533 72 -304 209 -544 433 -760 222 -214 490 -349 795 -401 171 -29 432 -23
589 14 610 145 1057 616 1162 1222 17 103 20 147 15 310 -6 201 -19 284 -72
441 -81 241 -247 490 -433 651 -321 275 -704 402 -1127 373z"/>
<path d="M11465 3490 c-175 -19 -332 -63 -494 -141 -434 -206 -729 -586 -832
-1069 -32 -150 -33 -439 -1 -586 33 -151 66 -245 137 -389 203 -410 581 -699
1045 -801 121 -27 477 -27 600 -1 546 116 981 507 1145 1027 51 162 68 303 62
505 -8 252 -48 417 -155 630 -91 183 -251 381 -410 507 -300 239 -713 359
-1097 318z m155 -395 l0 -175 -160 0 c-157 0 -160 0 -165 -22 -13 -55 -355
-1774 -355 -1785 0 -10 41 -13 179 -13 163 0 180 2 185 18 2 9 35 171 71 359
l67 343 89 0 89 0 0 -557 0 -556 -102 6 c-506 31 -959 391 -1116 887 -44 140
-56 227 -56 395 1 241 58 450 175 645 231 383 612 606 1072 629 l27 1 0 -175z
m0 -725 l0 -300 -64 0 -63 0 60 300 c33 165 62 300 63 300 2 0 4 -135 4 -300z"/>
<path d="M14795 3475 c-630 -102 -1112 -564 -1246 -1195 -32 -150 -33 -439 -1
-586 67 -312 195 -548 416 -770 247 -246 525 -385 864 -429 785 -104 1506 408
1674 1188 30 138 32 445 5 582 -84 417 -316 760 -670 989 -149 97 -319 166
-509 207 -125 27 -406 34 -533 14z m317 -220 c47 -82 157 -281 246 -441 l161
-291 -244 -973 c-134 -535 -246 -974 -248 -976 -2 -3 -114 435 -249 973 l-245
978 246 442 c135 243 246 441 247 440 1 -1 39 -69 86 -152z"/>
</g>
</svg>
