<?xml version="1.0" standalone="no"?>
<!DOCTYPE svg PUBLIC "-//W3C//DTD SVG 20010904//EN"
 "http://www.w3.org/TR/2001/REC-SVG-20010904/DTD/svg10.dtd">
<svg version="1.0" xmlns="http://www.w3.org/2000/svg"
 width="17.000000pt" height="28.000000pt" viewBox="0 0 17.000000 28.000000"
 preserveAspectRatio="xMidYMid meet">

<g transform="translate(0.000000,28.000000) scale(0.100000,-0.100000)"
fill="#000000" stroke="none">
<path d="M26 253 c-9 -10 5 -216 17 -230 21 -28 37 -14 37 32 0 25 5 45 10 45
6 0 10 -20 10 -45 0 -34 4 -45 15 -45 23 0 32 35 36 145 l4 100 -25 0 c-22 0
-25 -5 -28 -40 -5 -62 -22 -67 -22 -7 0 48 -2 52 -23 52 -13 0 -27 -3 -31 -7z"/>
</g>
</svg>
