<?xml version="1.0" standalone="no"?>
<!DOCTYPE svg PUBLIC "-//W3C//DTD SVG 20010904//EN"
 "http://www.w3.org/TR/2001/REC-SVG-20010904/DTD/svg10.dtd">
<svg version="1.0" xmlns="http://www.w3.org/2000/svg"
 width="557.000000pt" height="131.000000pt" viewBox="0 0 557.000000 131.000000"
 preserveAspectRatio="xMidYMid meet">

<g transform="translate(0.000000,131.000000) scale(0.100000,-0.100000)"
fill="#F1F1F1" stroke="none">
<path d="M2948 1224 c-15 -8 -31 -26 -34 -41 -13 -50 4 -404 21 -463 14 -43
15 -61 6 -91 -13 -44 -13 -134 0 -209 6 -30 10 -84 9 -118 -1 -62 0 -65 37
-97 31 -28 46 -34 85 -35 37 0 50 4 58 19 6 11 10 89 10 181 l0 160 26 12 c18
9 30 9 42 1 18 -11 20 -42 11 -235 -3 -83 -1 -100 14 -115 23 -23 116 -23 152
1 21 14 25 24 25 69 0 29 6 59 13 66 8 8 12 53 14 139 2 189 20 511 32 562 19
84 14 128 -18 161 -26 26 -37 29 -89 29 -71 0 -119 -15 -133 -42 -7 -14 -9
-71 -4 -177 7 -141 6 -159 -10 -174 -15 -16 -48 -16 -64 0 -3 2 -4 84 -2 182
3 203 -1 214 -68 210 -20 -2 -46 3 -58 9 -28 15 -42 15 -75 -4z"/>
<path d="M367 1210 c-15 -12 -40 -20 -62 -20 -53 0 -150 -54 -178 -99 -21 -35
-22 -43 -22 -323 0 -257 2 -288 18 -305 10 -12 17 -36 17 -63 0 -79 76 -184
140 -195 21 -4 48 -17 61 -31 29 -31 50 -30 87 1 17 14 40 25 51 25 28 0 71
43 71 70 0 12 7 35 16 52 18 35 13 116 -9 130 -6 4 -29 8 -49 8 -35 0 -39 -3
-63 -50 -32 -63 -51 -72 -81 -37 -37 43 -45 89 -28 155 10 37 13 76 9 112 -3
30 -8 93 -11 140 -6 78 -4 87 15 104 12 11 21 16 21 11 0 -4 6 -2 14 4 11 9
20 7 40 -12 21 -20 26 -33 26 -75 0 -60 17 -82 65 -82 73 0 108 32 130 118 10
37 9 57 -1 97 -8 27 -14 72 -14 99 0 41 -5 53 -34 82 -22 22 -44 34 -60 34
-33 0 -74 21 -100 49 -24 26 -37 26 -69 1z"/>
<path d="M898 1215 c-33 -11 -56 -27 -79 -58 -18 -23 -48 -59 -66 -80 -33 -37
-33 -38 -32 -135 0 -53 -7 -132 -15 -175 -24 -120 -21 -181 18 -304 18 -59 37
-127 41 -151 5 -29 14 -46 28 -54 12 -6 39 -26 61 -45 29 -26 45 -34 64 -30
16 3 35 -2 52 -15 39 -28 71 -10 119 71 22 36 60 83 84 103 45 37 45 38 52
115 4 43 16 105 27 138 12 37 21 105 25 176 5 102 3 125 -16 190 -14 45 -34
86 -51 104 -15 17 -37 49 -49 72 -38 75 -159 111 -263 78z m123 -362 c14 -35
6 -323 -10 -375 -25 -79 -57 -30 -68 102 -3 41 -14 94 -24 118 l-19 43 26 62
c15 34 31 65 38 69 23 16 47 7 57 -19z"/>
<path d="M4208 1200 c-60 -38 -63 -52 -54 -278 5 -126 3 -183 -5 -207 -11 -29
-9 -46 9 -113 14 -48 22 -110 23 -158 0 -99 20 -198 40 -202 8 -1 23 -16 33
-32 17 -29 47 -39 72 -22 6 4 14 28 18 54 4 26 14 61 23 79 11 22 14 46 10 80
-10 82 19 132 63 109 27 -14 40 -42 40 -82 0 -25 8 -42 30 -63 17 -16 37 -50
44 -76 22 -72 31 -84 76 -99 38 -13 42 -12 62 8 19 19 21 30 19 137 -2 123
-10 150 -47 159 -12 3 -33 21 -48 40 l-26 34 35 20 c41 25 75 87 75 138 0 20
5 54 12 75 9 30 8 63 -1 142 -16 129 -23 147 -76 196 -52 48 -94 61 -200 61
-44 1 -98 7 -120 15 -53 19 -53 19 -107 -15z m219 -219 c5 -19 37 -37 78 -43
17 -3 20 -12 23 -65 2 -45 -2 -72 -15 -97 -17 -33 -86 -96 -104 -96 -5 0 -9
21 -9 47 0 26 -5 85 -11 132 -8 61 -8 94 0 114 12 31 31 35 38 8z"/>
<path d="M5015 1224 c-53 -13 -78 -31 -139 -100 -70 -80 -70 -79 -66 -194 1
-36 -6 -103 -14 -149 -25 -132 -21 -203 19 -331 19 -61 35 -123 35 -136 0 -13
8 -31 18 -39 9 -8 38 -33 64 -56 38 -33 53 -40 75 -36 17 3 36 -2 54 -16 27
-19 29 -19 54 -3 15 10 38 38 53 64 15 26 52 71 82 100 53 52 54 53 61 125 4
39 16 104 28 142 16 53 22 101 24 195 2 143 -15 218 -62 272 -15 18 -39 53
-52 77 -15 27 -38 50 -61 62 -38 19 -136 32 -173 23z m97 -474 c11 -185 -13
-329 -51 -306 -13 8 -31 97 -31 154 0 26 -9 67 -20 91 -11 24 -20 47 -20 51 0
4 14 37 30 74 28 61 33 67 58 64 l27 -3 7 -125z"/>
<path d="M2042 1203 c-54 -26 -56 -37 -47 -248 9 -219 9 -219 0 -305 -7 -61
-6 -67 20 -94 26 -28 27 -32 20 -106 -5 -61 -4 -79 8 -88 11 -10 13 -28 10
-75 -6 -76 9 -95 89 -106 29 -4 63 -13 75 -19 18 -10 29 -8 69 13 26 14 64 25
84 25 55 0 83 34 88 110 7 90 -18 106 -122 78 -41 -11 -47 -10 -80 13 -33 22
-36 28 -36 77 0 83 48 114 121 76 27 -14 33 -14 54 0 18 12 26 31 35 85 19
103 24 99 -130 118 -64 8 -65 9 -68 40 -5 47 30 67 106 60 31 -3 67 -8 78 -12
16 -5 30 1 52 22 29 27 32 35 48 165 13 107 15 140 5 151 -9 12 -34 14 -114
11 -56 -2 -123 -7 -148 -10 -36 -4 -59 -1 -94 15 -57 25 -79 26 -123 4z"/>
<path d="M3603 1200 c-53 -32 -57 -49 -47 -189 8 -120 9 -257 2 -377 -3 -49 0
-57 21 -73 23 -18 24 -22 18 -99 -5 -64 -3 -83 9 -92 11 -10 13 -26 8 -74 -6
-61 -6 -63 26 -89 21 -18 43 -27 65 -27 19 0 50 -7 68 -16 33 -16 36 -16 79
10 29 17 60 26 86 26 33 0 44 5 61 29 26 36 33 147 11 162 -14 9 -68 7 -135
-7 -22 -4 -38 0 -58 16 -24 19 -27 28 -27 79 0 85 40 112 110 76 36 -19 77 -6
84 27 3 13 10 47 16 76 18 78 12 82 -133 97 -42 5 -60 11 -67 26 -11 20 1 56
24 71 16 11 95 9 138 -2 73 -21 102 21 119 175 5 44 11 94 15 111 10 52 -9 62
-123 58 -54 -2 -119 -6 -145 -10 -37 -5 -59 -2 -97 15 -61 26 -87 26 -128 1z"/>
<path d="M1392 1194 c-38 -27 -54 -80 -47 -159 4 -38 10 -83 15 -100 34 -122
37 -145 35 -315 -2 -96 -6 -203 -10 -237 -9 -73 4 -115 41 -131 13 -7 24 -20
24 -30 0 -25 31 -52 59 -52 36 0 104 40 144 86 21 24 47 44 58 44 28 0 56 33
69 82 7 23 27 72 45 108 34 67 60 154 95 312 20 89 20 94 4 172 -15 69 -23 86
-53 114 -20 17 -48 43 -62 56 -28 27 -129 66 -169 66 -15 0 -49 -7 -77 -15
-45 -13 -54 -13 -86 0 -46 19 -57 19 -85 -1z m280 -357 c36 -33 44 -103 23
-192 -8 -38 -20 -74 -26 -81 -6 -8 -17 -33 -24 -56 -13 -46 -39 -62 -50 -29
-3 10 -1 58 5 106 8 61 8 109 0 164 -6 43 -8 85 -4 94 9 24 47 21 76 -6z"/>
</g>
</svg>
